<svg width="1600" height="1100" viewBox="0 0 1600 1100" fill="none" xmlns="http://www.w3.org/2000/svg">
  <rect width="1600" height="1100" fill="#07101F"/>
  <defs>
    <radialGradient id="gBlue" cx="0" cy="0" r="1" gradientUnits="userSpaceOnUse" gradientTransform="translate(1120 330) rotate(128) scale(740 540)">
      <stop stop-color="#4285F4" stop-opacity="0.78"/>
      <stop offset="0.48" stop-color="#4285F4" stop-opacity="0.2"/>
      <stop offset="1" stop-color="#4285F4" stop-opacity="0"/>
    </radialGradient>
    <radialGradient id="gGreen" cx="0" cy="0" r="1" gradientUnits="userSpaceOnUse" gradientTransform="translate(720 720) rotate(30) scale(620 420)">
      <stop stop-color="#34A853" stop-opacity="0.55"/>
      <stop offset="1" stop-color="#34A853" stop-opacity="0"/>
    </radialGradient>
    <radialGradient id="gYellow" cx="0" cy="0" r="1" gradientUnits="userSpaceOnUse" gradientTransform="translate(1240 760) rotate(140) scale(480 360)">
      <stop stop-color="#FBBC04" stop-opacity="0.48"/>
      <stop offset="1" stop-color="#FBBC04" stop-opacity="0"/>
    </radialGradient>
    <radialGradient id="gRed" cx="0" cy="0" r="1" gradientUnits="userSpaceOnUse" gradientTransform="translate(960 520) rotate(90) scale(480)">
      <stop stop-color="#EA4335" stop-opacity="0.26"/>
      <stop offset="1" stop-color="#EA4335" stop-opacity="0"/>
    </radialGradient>
    <linearGradient id="card" x1="420" y1="255" x2="1240" y2="885" gradientUnits="userSpaceOnUse">
      <stop stop-color="#FFFFFF" stop-opacity="0.18"/>
      <stop offset="1" stop-color="#FFFFFF" stop-opacity="0.04"/>
    </linearGradient>
    <filter id="softShadow" x="300" y="170" width="1040" height="820" filterUnits="userSpaceOnUse" color-interpolation-filters="sRGB">
      <feDropShadow dx="0" dy="40" stdDeviation="70" flood-color="#000000" flood-opacity="0.42"/>
    </filter>
  </defs>
  <rect width="1600" height="1100" fill="url(#gBlue)"/>
  <rect width="1600" height="1100" fill="url(#gGreen)"/>
  <rect width="1600" height="1100" fill="url(#gYellow)"/>
  <rect width="1600" height="1100" fill="url(#gRed)"/>
  <g opacity="0.14">
    <path d="M0 210H1600M0 330H1600M0 450H1600M0 570H1600M0 690H1600M0 810H1600M0 930H1600" stroke="white"/>
    <path d="M280 0V1100M400 0V1100M520 0V1100M640 0V1100M760 0V1100M880 0V1100M1000 0V1100M1120 0V1100M1240 0V1100M1360 0V1100" stroke="white"/>
  </g>
  <g filter="url(#softShadow)">
    <rect x="430" y="250" width="760" height="560" rx="42" fill="url(#card)" stroke="white" stroke-opacity="0.16"/>
    <rect x="500" y="332" width="230" height="34" rx="17" fill="#4285F4" fill-opacity="0.92"/>
    <rect x="500" y="402" width="585" height="20" rx="10" fill="white" fill-opacity="0.22"/>
    <rect x="500" y="450" width="470" height="20" rx="10" fill="white" fill-opacity="0.14"/>
    <path d="M525 700C630 584 718 632 808 542C892 458 984 424 1090 348" stroke="#4285F4" stroke-width="18" stroke-linecap="round"/>
    <path d="M525 700C628 640 704 684 800 624C894 565 980 548 1090 502" stroke="#34A853" stroke-width="18" stroke-linecap="round"/>
    <path d="M525 700C638 714 730 746 830 714C930 682 998 650 1090 624" stroke="#FBBC04" stroke-width="18" stroke-linecap="round"/>
    <circle cx="1090" cy="348" r="26" fill="#4285F4"/>
    <circle cx="1090" cy="502" r="26" fill="#34A853"/>
    <circle cx="1090" cy="624" r="26" fill="#FBBC04"/>
  </g>
  <circle cx="1280" cy="280" r="70" fill="#EA4335" fill-opacity="0.24"/>
  <circle cx="1335" cy="340" r="38" fill="#FBBC04" fill-opacity="0.36"/>
</svg>
